<svg xmlns="http://www.w3.org/2000/svg" viewBox="0 0 1280 1280"><g id="Layer_2" data-name="Layer 2"><polygon points="283.31 363.84 283.31 390.32 386.76 390.32 386.76 493.77 413.24 493.77 413.24 363.84 283.31 363.84"/><path d="M340.42,436.66V556.72a33.92,33.92,0,0,1-33.88,33.88H186.48V436.66H340.42m26.48-26.48H160v206.9H306.54a60.37,60.37,0,0,0,60.36-60.36V410.18Z"/><polygon points="356.13 317.5 356.13 343.98 433.1 343.98 433.1 421.42 459.58 421.42 459.58 317.5 356.13 317.5"/><polygon points="428.48 271.16 428.48 297.64 479.44 297.64 479.44 348.6 505.92 348.6 505.92 271.16 428.48 271.16"/><path d="M259.74,722.68a3.77,3.77,0,0,1-1.67,3,8.26,8.26,0,0,1-3.79.7h-32v99.75c0,1.65-.24,2.74-.71,3.26s-1.47.8-3,.8H203.08c-1.65,0-2.68-.24-3.09-.71s-.62-1.53-.62-3.17V726.38h-33q-4.06,0-4.06-4.24V711.73q0-3.71,3.88-3.71h89.33c2.35,0,3.91.36,4.68,1.06a3.59,3.59,0,0,1,.79,3.36Z"/><path d="M349.78,826.66a5.17,5.17,0,0,1-.53,2.73c-.35.54-1.12.8-2.29.8H331.42c-1.3,0-2.12-.24-2.47-.71a5.17,5.17,0,0,1-.53-2.82V777.58q0-7.23-2.65-11.92T315.18,761a29.37,29.37,0,0,0-11.12,2.48,35.77,35.77,0,0,0-10.06,6v57.2a4.1,4.1,0,0,1-.71,2.73,3.44,3.44,0,0,1-2.65.8H275.46c-1.88,0-2.83-1.06-2.83-3.18V710.32c0-1.65.32-2.74,1-3.27a6.38,6.38,0,0,1,2.91-1.15c3.18-.46,5.71-.82,7.59-1.06l4.24-.52c.94-.12,1.56-.18,1.85-.18H291c2,0,3,1.12,3,3.36v44.3a40.66,40.66,0,0,1,13.24-7.06,47.39,47.39,0,0,1,14.65-2.47q14.82,0,21.36,8.65t6.53,23Z"/><path d="M455.17,826.83q0,3.36-3.53,3.36h-8.48q-6.89,0-10.23-2.92a12.82,12.82,0,0,1-4.24-7.5h-.35a19.77,19.77,0,0,1-4.51,4.77,35.72,35.72,0,0,1-6.35,4,43.05,43.05,0,0,1-7.24,2.74,28.05,28.05,0,0,1-7.5,1.06,34.64,34.64,0,0,1-16.15-3.54,32.63,32.63,0,0,1-11.3-9.53,40.33,40.33,0,0,1-6.62-13.85,63.31,63.31,0,0,1-2.12-16.51,59,59,0,0,1,3.18-20.22,43.44,43.44,0,0,1,8.47-14.56,35.52,35.52,0,0,1,26.48-11.83,30.91,30.91,0,0,1,13.15,2.83,23.77,23.77,0,0,1,9.45,7.41l.35-4.77q.35-3.18,3.71-3.18h12.35c2.48,0,3.71,1.3,3.71,3.89v61.26c0,2.59.35,4.3,1.06,5.11a2.85,2.85,0,0,0,2.12.71H452c2.12,0,3.18,1,3.18,3ZM426,768.75a20.31,20.31,0,0,0-7.5-6.44,21.11,21.11,0,0,0-10-2.56,17.3,17.3,0,0,0-7.68,1.77,18.14,18.14,0,0,0-6.35,5.21,25.83,25.83,0,0,0-4.33,8.64,41.9,41.9,0,0,0-1.58,12.09,50.94,50.94,0,0,0,1.05,10.6A27.06,27.06,0,0,0,393,806.7a18,18,0,0,0,5.82,5.92,15.7,15.7,0,0,0,8.48,2.2,17.08,17.08,0,0,0,6.18-1.14,26.36,26.36,0,0,0,5.47-2.82,20.49,20.49,0,0,0,4.24-3.8,22.55,22.55,0,0,0,2.82-4.23Z"/><path d="M547.32,825.6a5.59,5.59,0,0,1-.88,3.44c-.59.77-1.71,1.15-3.35,1.15H530.38c-1.65,0-2.77-.38-3.36-1.15a5.59,5.59,0,0,1-.88-3.44v-48q0-7.23-2.65-11.92T512.72,761a28.06,28.06,0,0,0-10.94,2.48,36.5,36.5,0,0,0-9.89,6v56.31q0,4.43-4.23,4.42H474.77c-2.83,0-4.24-1.42-4.24-4.24V749c0-2.94,1.47-4.42,4.41-4.42h11.48a5.41,5.41,0,0,1,3,.71,3.34,3.34,0,0,1,1.24,2.65l.17,4.59a47.1,47.1,0,0,1,13.51-7.59,44.16,44.16,0,0,1,15.09-2.65q14.84,0,21.36,8.56t6.53,23Z"/><path d="M649.54,787.29A54.22,54.22,0,0,1,646.71,805a40.17,40.17,0,0,1-8.39,14.3,39,39,0,0,1-13.59,9.54,46.07,46.07,0,0,1-18.27,3.44,46.84,46.84,0,0,1-18.71-3.44,35.06,35.06,0,0,1-13.07-9.54A40.69,40.69,0,0,1,567,805a59.84,59.84,0,0,1-2.56-17.92,54.3,54.3,0,0,1,2.82-17.74,38.89,38.89,0,0,1,21.89-23.65,45.73,45.73,0,0,1,18.36-3.45,48,48,0,0,1,18.72,3.35A34.71,34.71,0,0,1,639.3,755,39.71,39.71,0,0,1,647,769.29,60.66,60.66,0,0,1,649.54,787.29Zm-22.07,0a56.12,56.12,0,0,0-1-10.51,28.69,28.69,0,0,0-3.27-9,17.85,17.85,0,0,0-6.17-6.37,18.4,18.4,0,0,0-9.72-2.38,19.27,19.27,0,0,0-9.88,2.38A18.75,18.75,0,0,0,591,767.6a27,27,0,0,0-3.44,8.83,50.42,50.42,0,0,0-1.06,10.33,57.3,57.3,0,0,0,1,10.59,29.74,29.74,0,0,0,3.27,9.18,18.29,18.29,0,0,0,6.18,6.54,17.81,17.81,0,0,0,9.71,2.46,18,18,0,0,0,16.24-8.73,27.89,27.89,0,0,0,3.53-9A51.22,51.22,0,0,0,627.47,787.29Z"/><path d="M723.68,805a24.59,24.59,0,0,1-10.33,20.65,33.47,33.47,0,0,1-10.86,5,48.48,48.48,0,0,1-12.89,1.69,58.25,58.25,0,0,1-14-1.77,79.82,79.82,0,0,1-13.15-4.41,3,3,0,0,1-2.12-2.82,5.8,5.8,0,0,1,.35-1.6l2.83-9c.47-1.64,1.35-2.47,2.65-2.47a4,4,0,0,1,1.76.35,80.8,80.8,0,0,0,11.74,4,43.41,43.41,0,0,0,10.51,1.5,16.4,16.4,0,0,0,9.44-2.48,7.88,7.88,0,0,0,3.62-6.89,7.66,7.66,0,0,0-2.56-6,26.85,26.85,0,0,0-8-4.42l-14-5.29a32.35,32.35,0,0,1-12.88-8.66q-5.31-5.8-5.3-14.82a21.81,21.81,0,0,1,2.82-11.3,24.62,24.62,0,0,1,7.33-7.86,32.35,32.35,0,0,1,10.24-4.59,45.51,45.51,0,0,1,11.56-1.5,70.28,70.28,0,0,1,12.62,1.15,56.78,56.78,0,0,1,13,4.15c1.41.71,2.12,1.53,2.12,2.47a10.3,10.3,0,0,1-.36,1.76l-3,9.54a2.35,2.35,0,0,1-2.47,1.94,5.38,5.38,0,0,1-1.76-.36,70.64,70.64,0,0,0-9.62-3,42.07,42.07,0,0,0-9.45-1.23q-5.65,0-8.38,2.56a7.54,7.54,0,0,0-2.74,5.56,7.37,7.37,0,0,0,1.77,5c1.17,1.35,3.47,2.67,6.88,4l15.89,6.53a32.84,32.84,0,0,1,11.91,8.48Q723.68,796.3,723.68,805Z"/><path d="M772.58,789.05a5.56,5.56,0,0,1-1,3.62,4.32,4.32,0,0,1-3.44,1.15H738.51q-2.47,0-3.36-1.23a5.65,5.65,0,0,1-.88-3.36V777.76a5.2,5.2,0,0,1,.8-3.27c.53-.64,1.61-1,3.26-1H768c1.77,0,3,.33,3.62,1a4.84,4.84,0,0,1,1,3.44Z"/><path d="M212.79,918.81a17.86,17.86,0,0,1,2.38.18,17.58,17.58,0,0,1,2.56.52,2.22,2.22,0,0,1,1.77,2.3c0,.24-.15,1.35-.45,3.35s-.85,5.59-1.67,10.78c-.36,1.87-1.42,2.64-3.18,2.29a19.34,19.34,0,0,0-4.77-.53,20.35,20.35,0,0,0-9.09,2.21,23.36,23.36,0,0,0-7.85,6.27v56.13c0,3-1.42,4.41-4.24,4.41H175.36c-2.82,0-4.24-1.46-4.24-4.41v-76.8c0-1.75.42-2.94,1.24-3.52a5.32,5.32,0,0,1,3.18-.89h11.3q4.41,0,4.41,3.36l.18,5.65a35.34,35.34,0,0,1,9-8.21A22.89,22.89,0,0,1,212.79,918.81Z"/><path d="M273.69,991.71a53.67,53.67,0,0,0,11.12-1.14,69.83,69.83,0,0,0,10.6-3.09,6.24,6.24,0,0,1,2.64-.44c.82.06,1.42.74,1.77,2l2.47,9a16.29,16.29,0,0,1,.35,2.11c0,1.18-.94,2.18-2.82,3a56.86,56.86,0,0,1-14.66,4.32,93.89,93.89,0,0,1-15,1.32,51.29,51.29,0,0,1-18.63-3.18,37.49,37.49,0,0,1-13.85-9.08A39.91,39.91,0,0,1,229,982.36a54.49,54.49,0,0,1-3-18.71,50.38,50.38,0,0,1,3.17-18.18,41.37,41.37,0,0,1,8.92-14.22,40.08,40.08,0,0,1,13.77-9.18,47.27,47.27,0,0,1,17.92-3.26,36.8,36.8,0,0,1,14.65,2.82,32.73,32.73,0,0,1,11.12,7.77,32.31,32.31,0,0,1,8.3,14.47A67.84,67.84,0,0,1,306,961v2.65c0,2.12-.41,3.51-1.24,4.14s-2.36,1-4.59,1H248.45q1.05,10.25,7.85,16.59T273.69,991.71ZM285,954.82v-1.94a26.19,26.19,0,0,0-1.23-6.62,16.69,16.69,0,0,0-3.09-5.65,15.87,15.87,0,0,0-5-3.88,15.6,15.6,0,0,0-7.06-1.5,18.13,18.13,0,0,0-7.68,1.58,19,19,0,0,0-6,4.33,21.33,21.33,0,0,0-4.06,6.27,28.74,28.74,0,0,0-2,7.41Z"/><path d="M451.64,1002.31c0,3-1.41,4.41-4.24,4.41H435c-3.06,0-4.59-1.46-4.59-4.41V953.94a38.53,38.53,0,0,0-.53-6.62,13.11,13.11,0,0,0-2-5.3,10.73,10.73,0,0,0-4.06-3.52,14.27,14.27,0,0,0-6.62-1.33,26.67,26.67,0,0,0-10.5,2.29,38.34,38.34,0,0,0-9.44,5.66,32.58,32.58,0,0,1,.26,4.58q.09,4.06.18,8.91c.06,3.25.11,6.27.17,9.1s.09,4.53.09,5.12v29.48c0,3-1.41,4.41-4.23,4.41H382.08c-3.06,0-4.59-1.46-4.59-4.41V953.94a46.07,46.07,0,0,0-.44-6.62,13.12,13.12,0,0,0-1.85-5.3,10.25,10.25,0,0,0-3.88-3.52,13.78,13.78,0,0,0-6.54-1.33,22.64,22.64,0,0,0-10.23,2.56,43.59,43.59,0,0,0-9.36,6.26v56.32c0,3-1.47,4.41-4.41,4.41H328.42c-3.06,0-4.59-1.46-4.59-4.41V925.16c0-2.7,1.41-4.06,4.24-4.06h11.47q4.23,0,4.41,3.36l.18,4.42a41.37,41.37,0,0,1,12.27-7.43,37.72,37.72,0,0,1,13.68-2.64A27.71,27.71,0,0,1,383.85,922a22.73,22.73,0,0,1,8.65,8.29,40.32,40.32,0,0,1,14-8.56,47.16,47.16,0,0,1,16.16-2.91q9.71,0,15.8,4.06a26.71,26.71,0,0,1,8.91,9.18,36.08,36.08,0,0,1,3.36,11,104.6,104.6,0,0,1,.88,14.57Z"/><path d="M555.62,963.83a54.26,54.26,0,0,1-2.83,17.74,40.38,40.38,0,0,1-8.38,14.3,38.93,38.93,0,0,1-13.6,9.53,45.9,45.9,0,0,1-18.27,3.44,46.7,46.7,0,0,1-18.71-3.44,35,35,0,0,1-13.07-9.53,40.78,40.78,0,0,1-7.67-14.3,59.84,59.84,0,0,1-2.56-17.92,54.26,54.26,0,0,1,2.82-17.74,38.82,38.82,0,0,1,21.89-23.65,45.56,45.56,0,0,1,18.36-3.45,48,48,0,0,1,18.72,3.35,34.61,34.61,0,0,1,13.06,9.36,39.92,39.92,0,0,1,7.68,14.3A61.1,61.1,0,0,1,555.62,963.83Zm-22.07,0a55.14,55.14,0,0,0-1-10.51,28.85,28.85,0,0,0-3.27-9,17.91,17.91,0,0,0-6.17-6.36,18.27,18.27,0,0,0-9.71-2.38,19.21,19.21,0,0,0-9.89,2.38,18.72,18.72,0,0,0-6.44,6.18,26.75,26.75,0,0,0-3.45,8.83,50.39,50.39,0,0,0-1,10.32,56.48,56.48,0,0,0,1,10.6,29.66,29.66,0,0,0,3.26,9.18A18.18,18.18,0,0,0,503,989.6a17.75,17.75,0,0,0,9.71,2.47,18.75,18.75,0,0,0,9.8-2.38,19.08,19.08,0,0,0,6.44-6.35,27.67,27.67,0,0,0,3.53-9A50.53,50.53,0,0,0,533.55,963.83Z"/><path d="M610,991.9a27.89,27.89,0,0,0,6.09-.62,44.57,44.57,0,0,0,5.21-1.5,9.46,9.46,0,0,1,1.94-.36c1.06,0,1.76.71,2.12,2.12l1.76,8.83a3.67,3.67,0,0,1-2.47,4.41,50.84,50.84,0,0,1-9.27,2.92,48.94,48.94,0,0,1-10.5,1.14,40.28,40.28,0,0,1-12.27-1.76,19.14,19.14,0,0,1-8.92-5.65,18.05,18.05,0,0,1-3.26-4.85,23.08,23.08,0,0,1-1.68-5.74,50.82,50.82,0,0,1-.62-7.06c-.06-2.59-.08-5.48-.08-8.66V935.75h-8.3c-1.65,0-2.71-.25-3.18-.79s-.71-1.73-.71-3.62v-6.71q0-3.52,3.18-3.53h9V901.86q0-2.29,1.14-3.09a8.09,8.09,0,0,1,3.27-1.14L596,896q3.36,0,3.36,3.89V921.1h19.94c2.24,0,3.36,1,3.36,3v8.29c0,2.24-1.18,3.35-3.53,3.35H599.4v40.43a46.64,46.64,0,0,0,.44,7,12.26,12.26,0,0,0,1.85,5,8.33,8.33,0,0,0,3.18,2.73A11.44,11.44,0,0,0,610,991.9Z"/><path d="M684.14,991.71a53.74,53.74,0,0,0,11.12-1.14,69.71,69.71,0,0,0,10.59-3.09,6.28,6.28,0,0,1,2.65-.44c.82.06,1.41.74,1.76,2l2.47,9a17.24,17.24,0,0,1,.36,2.11c0,1.18-1,2.18-2.83,3a56.78,56.78,0,0,1-14.65,4.32,93.89,93.89,0,0,1-15,1.32,51.25,51.25,0,0,1-18.63-3.18,37.61,37.61,0,0,1-13.86-9.08,39.91,39.91,0,0,1-8.65-14.22,54.73,54.73,0,0,1-3-18.71,50.39,50.39,0,0,1,3.18-18.18,41.35,41.35,0,0,1,8.91-14.22,40.08,40.08,0,0,1,13.77-9.18,47.34,47.34,0,0,1,17.92-3.26,36.77,36.77,0,0,1,14.65,2.82A32.77,32.77,0,0,1,706,929.4a32.29,32.29,0,0,1,8.29,14.47A67.39,67.39,0,0,1,716.44,961v2.65c0,2.12-.41,3.51-1.23,4.14s-2.36,1-4.59,1H658.89a25.43,25.43,0,0,0,7.85,16.59Q673.54,991.72,684.14,991.71Zm11.29-36.89v-1.94a25.76,25.76,0,0,0-1.23-6.62,16.52,16.52,0,0,0-3.09-5.65,15.83,15.83,0,0,0-5-3.88,15.63,15.63,0,0,0-7.06-1.5,18.14,18.14,0,0,0-7.69,1.58,19,19,0,0,0-6,4.33,20.94,20.94,0,0,0-4.06,6.27,28.36,28.36,0,0,0-2,7.41Z"/><path d="M771.87,965.59a5.52,5.52,0,0,1-1,3.62c-.65.77-1.79,1.14-3.44,1.14H737.8c-1.65,0-2.76-.4-3.35-1.23a5.64,5.64,0,0,1-.88-3.35V954.3a5.21,5.21,0,0,1,.79-3.27c.53-.65,1.62-1,3.27-1h29.65c1.77,0,3,.33,3.62,1a4.8,4.8,0,0,1,1,3.44Z"/><path d="M832.6,918.81a20,20,0,0,1,4.95.7,2.23,2.23,0,0,1,1.76,2.3c0,.24-.15,1.35-.44,3.35s-.86,5.59-1.68,10.78c-.35,1.87-1.41,2.64-3.17,2.29a19.45,19.45,0,0,0-4.77-.53,20.39,20.39,0,0,0-9.1,2.21,23.36,23.36,0,0,0-7.85,6.27v56.13c0,3-1.41,4.41-4.24,4.41H795.18c-2.83,0-4.24-1.46-4.24-4.41v-76.8c0-1.75.41-2.94,1.23-3.52a5.36,5.36,0,0,1,3.18-.89h11.3q4.41,0,4.41,3.36l.18,5.65a35.67,35.67,0,0,1,9-8.21A22.94,22.94,0,0,1,832.6,918.81Z"/><path d="M893.5,991.71a53.67,53.67,0,0,0,11.12-1.14,69.83,69.83,0,0,0,10.6-3.09,6.24,6.24,0,0,1,2.64-.44c.82.06,1.42.74,1.77,2l2.47,9a16.29,16.29,0,0,1,.35,2.11c0,1.18-.94,2.18-2.82,3a56.86,56.86,0,0,1-14.66,4.32,93.89,93.89,0,0,1-15,1.32,51.29,51.29,0,0,1-18.63-3.18,37.49,37.49,0,0,1-13.85-9.08,39.91,39.91,0,0,1-8.65-14.22,54.49,54.49,0,0,1-3-18.71A50.38,50.38,0,0,1,849,945.47a41.37,41.37,0,0,1,8.92-14.22,40.08,40.08,0,0,1,13.77-9.18,47.27,47.27,0,0,1,17.92-3.26,36.8,36.8,0,0,1,14.65,2.82,32.73,32.73,0,0,1,11.12,7.77,32.22,32.22,0,0,1,8.3,14.47A67.84,67.84,0,0,1,925.81,961v2.65c0,2.12-.41,3.51-1.24,4.14s-2.36,1-4.59,1H868.26q1.05,10.25,7.85,16.59T893.5,991.71Zm11.3-36.89v-1.94a26.19,26.19,0,0,0-1.23-6.62,16.69,16.69,0,0,0-3.09-5.65,15.87,15.87,0,0,0-5-3.88,15.6,15.6,0,0,0-7.06-1.5,18.13,18.13,0,0,0-7.68,1.58,19,19,0,0,0-6,4.33,21.33,21.33,0,0,0-4.06,6.27,28.74,28.74,0,0,0-2,7.41Z"/><path d="M1026.79,1003.37c0,2.24-1.18,3.35-3.54,3.35h-8.47c-4.59,0-8-1-10.24-2.91a12.81,12.81,0,0,1-4.23-7.5H1000a19.91,19.91,0,0,1-4.5,4.77,35.72,35.72,0,0,1-6.35,4,42.18,42.18,0,0,1-7.24,2.73,27.66,27.66,0,0,1-7.5,1.06,34.68,34.68,0,0,1-16.16-3.53,32.84,32.84,0,0,1-11.3-9.54,40.42,40.42,0,0,1-6.62-13.85,63.24,63.24,0,0,1-2.11-16.5,59,59,0,0,1,3.17-20.22,43.5,43.5,0,0,1,8.48-14.57,35.56,35.56,0,0,1,26.48-11.82,31.08,31.08,0,0,1,13.15,2.82,23.69,23.69,0,0,1,9.44,7.42l.36-4.77c.23-2.12,1.47-3.18,3.7-3.18h12.36q3.71,0,3.71,3.89v61.26q0,3.88,1.06,5.11a2.83,2.83,0,0,0,2.12.71h1.41c2.12,0,3.18,1,3.18,3Zm-29.13-58.08a20.35,20.35,0,0,0-7.51-6.44,21.07,21.07,0,0,0-10-2.56,17.1,17.1,0,0,0-7.68,1.77,18.22,18.22,0,0,0-6.35,5.2,25.79,25.79,0,0,0-4.33,8.65A41.53,41.53,0,0,0,960.23,964a51,51,0,0,0,1.06,10.6,27.06,27.06,0,0,0,3.36,8.64,17.79,17.79,0,0,0,5.82,5.91,15.58,15.58,0,0,0,8.47,2.21,17.26,17.26,0,0,0,6.18-1.14,26.44,26.44,0,0,0,5.48-2.82,20.19,20.19,0,0,0,4.23-3.81,21.54,21.54,0,0,0,2.83-4.23Z"/><path d="M1120,1002.31a4.33,4.33,0,0,1-1.15,3.35,3.85,3.85,0,0,1-2.73,1.06h-11.48q-3.89,0-4.23-3.52l-.36-4.77a30.66,30.66,0,0,1-10.41,7.33,32.4,32.4,0,0,1-13.6,3.08,36.74,36.74,0,0,1-16.59-3.53,32.79,32.79,0,0,1-11.65-9.54,40.13,40.13,0,0,1-6.8-14,63.36,63.36,0,0,1-2.2-16.86,59.4,59.4,0,0,1,2.56-17.56,46,46,0,0,1,7.41-14.74,36.15,36.15,0,0,1,12.09-10.15,35.24,35.24,0,0,1,16.6-3.8,32.5,32.5,0,0,1,11.74,2.21,25.55,25.55,0,0,1,9.44,6.09V887.21a5.62,5.62,0,0,1,.79-3.44,4.69,4.69,0,0,1,2.92-1.33l14.83-1.94q2.82,0,2.82,3.53Zm-21.36-57.9a22.82,22.82,0,0,0-7.24-6.1,19.69,19.69,0,0,0-9.71-2.56,18.05,18.05,0,0,0-9.26,2.31,18.41,18.41,0,0,0-6.45,6.17,29.72,29.72,0,0,0-3.71,8.92,44,44,0,0,0-1.23,10.5,50.77,50.77,0,0,0,1.06,10.51,29.09,29.09,0,0,0,3.35,8.91,17.5,17.5,0,0,0,6.09,6.18,17.24,17.24,0,0,0,9.09,2.29,21.77,21.77,0,0,0,10.15-2.73,24.37,24.37,0,0,0,7.86-6.09Z"/></g></svg>