<svg xmlns="http://www.w3.org/2000/svg" viewBox="0 0 1280 1280"><defs><style>.cls-1{fill:#fff;}</style></defs><g id="Layer_1" data-name="Layer 1"><rect width="1280" height="1280"/></g><g id="Layer_2" data-name="Layer 2"><polygon class="cls-1" points="503.21 489.69 790.3 489.69 790.3 776.78 861.79 776.78 861.79 418.21 503.21 418.21 503.21 489.69"/><path class="cls-1" d="M161,1119H566.67c91.82,0,166.51-74.7,166.51-166.52V546.81H161Zm71.49-500.7H661.7V952.48a95.15,95.15,0,0,1-95,95H232.49Z"/><polygon class="cls-1" points="705.3 361.09 918.91 361.09 918.91 576.02 990.39 576.02 990.39 289.6 705.3 289.6 705.3 361.09"/><polygon class="cls-1" points="906.07 232.48 1047.51 232.48 1047.51 373.92 1119 373.92 1119 161 906.07 161 906.07 232.48"/></g></svg>