<svg xmlns="http://www.w3.org/2000/svg" viewBox="0 0 1280 1280"><defs><style>.cls-1{fill:#00aae1;}.cls-2{fill:#00458d;}.cls-3{fill:#00a3a6;}.cls-4{fill:#d7d7d7;}</style></defs><g id="Layer_2" data-name="Layer 2"><polygon class="cls-1" points="502.21 417.21 502.21 490.69 789.3 490.69 789.3 777.78 862.79 777.78 862.79 417.21 502.21 417.21"/><path class="cls-2" d="M660.7,619.3V952.48a94.16,94.16,0,0,1-94,94H233.49V619.3H660.7m73.48-73.49H160V1120H566.67A167.51,167.51,0,0,0,734.18,952.48V545.81Z"/><polygon class="cls-3" points="704.3 288.6 704.3 362.09 917.91 362.09 917.91 577.02 991.39 577.02 991.39 288.6 704.3 288.6"/><polygon class="cls-4" points="905.07 160 905.07 233.48 1046.51 233.48 1046.51 374.92 1120 374.92 1120 160 905.07 160"/></g></svg>